#N canvas 347 269 447 254 10;
#X text 215 88 Constructor Parameters:;
#X obj 96 90 bng 15 250 50 0 empty empty empty 17 7 0 10 -262144 -1
-1;
#X floatatom 134 127 5 0 0 0 - - -, f 5;
#X msg 72 61 open;
#X msg 124 67 true false;
#X obj 139 106 bng 15 250 50 0 empty empty empty 17 7 0 10 -262144
-1 -1;
#X msg 16 105 bang;
#X obj 26 74 tgl 15 0 empty empty empty 17 7 0 10 -262144 -1 -1 0 1
;
#X msg 44 9 alfa beta 3.14159 \, -1 test;
#X obj 30 188 bng 15 250 50 0 empty empty empty 17 7 0 10 -262144 -1
-1;
#X text 252 100 port: Default 40000;
#X obj 282 176 print rcv;
#X obj 282 145 broadcastrecv 40000;
#X obj 92 165 broadcastsend 40000;
#X obj 30 216 broadcastsend 40000;
#X text 257 230 Developed by flavio schiavoni;
#X connect 1 0 13 0;
#X connect 2 0 13 0;
#X connect 3 0 13 0;
#X connect 4 0 13 0;
#X connect 5 0 2 0;
#X connect 6 0 13 0;
#X connect 7 0 13 0;
#X connect 8 0 13 0;
#X connect 9 0 14 0;
#X connect 12 0 11 0;
